<?xml version="1.0" standalone="no"?><!-- Generator: Gravit.io --><svg xmlns="http://www.w3.org/2000/svg" xmlns:xlink="http://www.w3.org/1999/xlink" style="isolation:isolate" viewBox="0 0 576 288" width="576" height="288"><clipPath id="_clipPath_sfiIoBgKedh4ziyX1zra8pmxK0aQUzPt"><rect x="0" y="0" width="576" height="288" transform="matrix(1,0,0,1,0,0)" fill="rgb(255,255,255)"/></clipPath><g clip-path="url(#_clipPath_sfiIoBgKedh4ziyX1zra8pmxK0aQUzPt)"><g><path d=" M 427.8 109.7 C 421.6 113 422.4 122.2 429 123.4 C 432.1 124 436.9 122.7 438.5 120.8 C 444.7 114 436.2 105.2 427.8 109.7 Z " fill="rgb(255,255,255)"/><path d=" M 462.8 123.8 C 462.4 124 460.9 126 459.4 128.1 C 457.8 130.4 456.3 132.2 455.9 132.2 C 455.6 132.2 451.1 130.7 446 129 C 438.6 126.6 436.1 126.1 433.7 126.2 C 430.9 126.1 431.1 126.1 427.8 126.2 C 426 126.3 422.8 127.1 420.9 127.3 L 412.7 127.9 Q 412 128 411.7 128.1 Q 411.3 128.4 410.9 129 L 409.7 133.7 C 408 140.9 408.8 142.3 411.7 136.7 L 413.7 132.8 L 419.1 132.8 C 422.1 132.8 424.5 132.9 424.5 133 C 424.5 133.1 425 135.2 425.6 137.8 L 426.7 142.4 L 423.3 148.2 L 419.9 154 L 416.8 151.3 C 413.6 148.6 411.8 148.3 410.9 150.3 C 410.5 151.1 418.7 160.9 420.1 161.5 C 421 161.8 422.9 159.8 426.1 155.4 C 427.8 153.2 429.3 151.4 429.5 151.4 C 429.8 151.4 432 153.4 434.3 155.7 Q 437.7 159 441.2 168.7 Q 442 171 442 171.7 C 442 173.6 441.4 174 443.6 173.6 C 445.8 173.2 446.6 175.7 446 169.3 C 445.6 166.6 443.3 158.4 443.3 157.5 Q 442.9 156.3 442 154 Q 441.4 152.1 439.6 150.2 C 437.7 148.5 436.2 146.4 436.2 145.8 C 436.2 145.1 437 142.3 438 139.5 C 440 133.6 439.2 133.8 450.4 136 C 453.5 136.5 457.1 136.9 457.5 137 C 457.9 137 458.4 136.8 458.5 136.7 C 459.4 136.3 465 124.6 465 123.8 C 465 123 463.8 123.2 462.8 123.8 Z " fill="rgb(251,248,248)"/><path d=" M 382.1 139.1 C 390 140.7 397.1 141.3 397.2 140.5 C 397.2 140.1 395.4 139.9 393.6 140 C 391.6 139.9 386.5 139.5 382.4 138.8 L 375 137.7 L 382.1 139.1 L 382.1 139.1 Z " fill="rgb(255,255,255)"/><path d=" M 372.3 129.7 C 386 132.6 398.4 133.8 398.5 132.4 C 398.6 131.8 395.5 131.3 392.4 131.3 C 388.7 131.2 380 130.3 372.8 129.2 L 360 127.1 L 372.3 129.7 L 372.3 129.7 Z " fill="rgb(255,255,255)"/><path d=" M 403.7 146.1 C 401.5 147.3 399.6 148.6 399.6 149 C 399.4 150 401.9 150.2 405.1 149.4 C 407.3 148.9 408 148.9 408.2 149.5 C 408.4 151 409.7 150.6 411.2 148.5 C 413.1 145.9 413.2 145.7 411.3 146 C 410.3 146.1 409.7 145.8 409.5 145.1 C 409.2 143.4 408 143.6 403.7 146.1 Z " fill="rgb(255,255,255)"/><path d=" M 386.1 145.8 C 386.1 145.9 387.5 146.4 389.4 146.8 C 391.8 147.4 393 147.4 394.4 146.7 C 395.4 146.3 395.4 146.1 394.2 146.4 C 393.2 146.6 391 146.5 389.1 146.2 C 387.5 145.8 386.1 145.6 386.1 145.8 Z " fill="rgb(255,255,255)"/><path d=" M 440.5 174.5 C 440.4 174.7 440.8 175.2 441.4 175.5 C 441.9 175.8 442.2 176.8 441.9 178 C 441.5 179.4 441.7 180 442.4 179.8 C 443 179.8 453.3 180.3 453.5 179.8 C 453.7 178.9 451 177 448.9 176.6 C 448.2 176.5 447.6 176.1 447.6 175.8 C 447.7 175.5 446.2 174.9 444.2 174.6 C 442.3 174.3 440.5 174.2 440.5 174.5 Z " fill="rgb(255,255,255)"/><path d=" M 451 117.6 C 451 111.1 457.3 105.8 465 105.8 C 472.7 105.8 478.9 111.1 478.9 117.6" fill="rgb(255,255,255)"/><path d=" M 467.4 98.7 L 464.6 101.7 L 462.8 99.7 C 462.7 99.6 462.7 99.4 462.7 99.3 C 462.7 99.2 462.9 99 463 99 C 463.1 98.9 463.3 99 463.4 99.1 L 464.6 100.4 L 466.8 98 C 466.8 98 466.9 98 466.9 97.9 L 466.9 97.9 C 466.6 97.7 466.3 97.6 466 97.6 C 465.4 97.6 464.9 97.9 464.6 98.4 C 464.3 97.9 463.8 97.6 463.2 97.6 C 462.2 97.6 461.5 98.4 461.5 99.5 C 461.5 100 461.6 100.5 462 100.8 L 464.6 103.7 L 467.2 100.8 C 467.5 100.4 467.7 99.9 467.7 99.5 C 467.7 99.2 467.6 98.9 467.5 98.6 L 467.5 98.6 Q 467.4 98.6 467.4 98.7 Z " fill="rgb(255,255,255)"/><mask id="_mask_wdXpODK9n6gGVe0eROyPzGWVBgVzniKe" x="-200%" y="-200%" width="400%" height="400%"><rect x="-200%" y="-200%" width="400%" height="400%" style="fill:white;"/><path d=" M 449.2 120.8 L 456.3 120.8 L 471.9 120.8 L 480.8 120.8" fill="black" stroke="none"/></mask><path d=" M 449.2 120.8 L 456.3 120.8 L 471.9 120.8 L 480.8 120.8" fill="rgb(0,0,0)" mask="url(#_mask_wdXpODK9n6gGVe0eROyPzGWVBgVzniKe)" vector-effect="non-scaling-stroke" stroke-width="2" stroke="rgb(255,255,255)" stroke-opacity="100" stroke-linejoin="miter" stroke-linecap="round" stroke-miterlimit="3"/></g><g><path d=" M 92.6 152.6 L 92.6 152.6 L 92.6 152.6 Q 92.6 149.5 94.2 147.3 L 94.2 147.3 L 94.2 147.3 Q 95.8 145.2 98.6 144 L 98.6 144 L 98.6 144 Q 99 143.9 99.2 144.2 L 99.2 144.2 L 99.2 144.2 Q 99.3 144.6 99.1 144.9 L 99.1 144.9 L 99.1 144.9 Q 97.8 145.6 97 147.1 L 97 147.1 L 97 147.1 Q 96.3 148.6 96.3 150.8 L 96.3 150.8 L 96.3 150.8 Q 96.3 155.2 99.5 157.7 L 99.5 157.7 L 99.5 157.7 Q 102.8 160.2 107.9 160.2 L 107.9 160.2 L 107.9 160.2 Q 114.7 160.2 117.6 157.5 L 117.6 157.5 L 117.6 157.5 Q 120.5 154.9 120.5 150.6 L 120.5 150.6 L 120.5 150.6 Q 120.5 146.5 118.9 143.5 L 118.9 143.5 L 118.9 143.5 Q 117.2 140.4 115.2 137.7 L 115.2 137.7 L 115.2 137.7 Q 113.3 135 111.6 132.3 L 111.6 132.3 L 111.6 132.3 Q 110 129.5 110 126.1 L 110 126.1 L 110 126.1 Q 110 124.1 110.9 122.2 L 110.9 122.2 L 110.9 122.2 Q 111.8 120.3 113.4 118.8 L 113.4 118.8 L 113.4 118.8 Q 115 117.4 117.2 116.5 L 117.2 116.5 L 117.2 116.5 Q 119.5 115.6 122.1 115.6 L 122.1 115.6 L 122.1 115.6 Q 125.8 115.6 127.9 117.2 L 127.9 117.2 L 127.9 117.2 Q 130 118.7 130 120.9 L 130 120.9 L 130 120.9 Q 130 122.1 129 123.9 L 129 123.9 L 129 123.9 Q 128 125.6 126.9 126.9 L 126.9 126.9 L 126.9 126.9 Q 126.6 127.1 126.4 126.9 L 126.4 126.9 L 126.4 126.9 Q 126.2 126.6 126.2 126.4 L 126.2 126.4 L 126.2 126.4 Q 126.6 125.8 126.8 125 L 126.8 125 L 126.8 125 Q 127.1 124.1 127.1 123.1 L 127.1 123.1 L 127.1 123.1 Q 127.1 122 126.6 120.9 L 126.6 120.9 L 126.6 120.9 Q 126.1 119.9 125.1 119.1 L 125.1 119.1 L 125.1 119.1 Q 124.2 118.4 123 117.9 L 123 117.9 L 123 117.9 Q 121.8 117.4 120.4 117.4 L 120.4 117.4 L 120.4 117.4 Q 116.8 117.4 115.1 119.2 L 115.1 119.2 L 115.1 119.2 Q 113.5 120.9 113.5 123.6 L 113.5 123.6 L 113.5 123.6 Q 113.5 125.8 114.3 127.7 L 114.3 127.7 L 114.3 127.7 Q 115.1 129.6 116.4 131.5 L 116.4 131.5 L 116.4 131.5 Q 117.6 133.4 119 135.3 L 119 135.3 L 119 135.3 Q 120.4 137.2 121.6 139.3 L 121.6 139.3 L 121.6 139.3 Q 122.8 141.3 123.7 143.6 L 123.7 143.6 L 123.7 143.6 Q 124.5 145.9 124.5 148.5 L 124.5 148.5 L 124.5 148.5 Q 124.5 151.3 123.1 153.8 L 123.1 153.8 L 123.1 153.8 Q 121.7 156.2 119.2 158.1 L 119.2 158.1 L 119.2 158.1 Q 116.8 159.9 113.6 161 L 113.6 161 L 113.6 161 Q 110.3 162 106.6 162 L 106.6 162 L 106.6 162 Q 99.7 162 96.2 159.3 L 96.2 159.3 L 96.2 159.3 Q 92.6 156.7 92.6 152.6 Z  M 147.8 157.5 L 147.8 157.5 L 147.8 157.5 Q 148 157.3 148.2 157.5 L 148.2 157.5 L 148.2 157.5 Q 148.4 157.6 148.3 157.9 L 148.3 157.9 L 148.3 157.9 Q 147 159.8 145.4 160.9 L 145.4 160.9 L 145.4 160.9 Q 143.9 162 142.4 162 L 142.4 162 L 142.4 162 Q 140.8 162 140.3 159.7 L 140.3 159.7 L 140.3 159.7 Q 139.8 157.3 140.8 154.1 L 140.8 154.1 L 140.8 154.1 Q 138.8 157.2 136.6 159.4 L 136.6 159.4 L 136.6 159.4 Q 134.3 161.6 131.8 162 L 131.8 162 L 131.8 162 Q 130 162 129.1 160.4 L 129.1 160.4 L 129.1 160.4 Q 128.2 158.8 128.2 156.7 L 128.2 156.7 L 128.2 156.7 Q 128.2 154.4 129.3 152 L 129.3 152 L 129.3 152 Q 130.5 149.7 132.4 147.8 L 132.4 147.8 L 132.4 147.8 Q 134.3 145.9 136.6 144.8 L 136.6 144.8 L 136.6 144.8 Q 139 143.6 141.3 143.6 L 141.3 143.6 L 141.3 143.6 Q 143.9 143.6 145.3 144.8 L 145.3 144.8 L 145.3 144.8 Q 146 144.3 147.1 143.9 L 147.1 143.9 L 147.1 143.9 Q 148.3 143.6 149.1 143.6 L 149.1 143.6 L 149.1 143.6 Q 149.4 143.6 149.4 143.9 L 149.4 143.9 L 149.4 143.9 Q 147.8 145.9 146.6 148.4 L 146.6 148.4 L 146.6 148.4 Q 145.4 150.8 144.7 153 L 144.7 153 L 144.7 153 Q 144.1 155.2 143.9 156.9 L 143.9 156.9 L 143.9 156.9 Q 143.8 158.6 144.2 159.3 L 144.2 159.3 L 144.2 159.3 Q 144.6 159.7 145.4 159.5 L 145.4 159.5 L 145.4 159.5 Q 146.3 159.3 147.8 157.5 Z  M 134 159.3 L 134 159.3 L 134 159.3 Q 134.9 159.3 136.1 158.3 L 136.1 158.3 L 136.1 158.3 Q 137.4 157.2 138.8 155.4 L 138.8 155.4 L 138.8 155.4 Q 140.1 153.6 141.5 151.3 L 141.5 151.3 L 141.5 151.3 Q 142.8 149.1 143.8 146.8 L 143.8 146.8 L 143.8 146.8 Q 143.5 145.9 142.5 145.3 L 142.5 145.3 L 142.5 145.3 Q 141.4 144.7 140 144.7 L 140 144.7 L 140 144.7 Q 138.4 144.7 137 145.5 L 137 145.5 L 137 145.5 Q 135.5 146.4 134.5 147.9 L 134.5 147.9 L 134.5 147.9 Q 133.4 149.3 132.8 151.4 L 132.8 151.4 L 132.8 151.4 Q 132.2 153.4 132.2 155.9 L 132.2 155.9 L 132.2 155.9 Q 132.2 157.5 132.7 158.4 L 132.7 158.4 L 132.7 158.4 Q 133.3 159.3 134 159.3 Z  M 158 161 L 158 161 L 158 161 Q 157 161.4 155.7 161.7 L 155.7 161.7 L 155.7 161.7 Q 154.4 162 153.1 162 L 153.1 162 L 153.1 162 Q 152.2 162 152.6 161.1 L 152.6 161.1 L 152.6 161.1 Q 153.8 158 154.7 154.5 L 154.7 154.5 L 154.7 154.5 Q 155.5 150.9 155.9 148.1 L 155.9 148.1 L 155.9 148.1 Q 156.1 145.6 155.1 145.6 L 155.1 145.6 L 155.1 145.6 Q 154 145.6 152.4 147.2 L 152.4 147.2 L 152.4 147.2 Q 152.1 147.4 151.9 147.2 L 151.9 147.2 L 151.9 147.2 Q 151.6 147 151.8 146.7 L 151.8 146.7 L 151.8 146.7 Q 153.1 145.4 154.7 144.5 L 154.7 144.5 L 154.7 144.5 Q 156.3 143.6 158 143.6 L 158 143.6 L 158 143.6 Q 159.1 143.6 159.4 144.2 L 159.4 144.2 L 159.4 144.2 Q 159.8 144.9 159.8 145.9 L 159.8 145.9 L 159.8 145.9 Q 159.8 147.2 159.5 149.1 L 159.5 149.1 L 159.5 149.1 Q 159.2 151 158.7 153 L 158.7 153 L 158.7 153 Q 158.3 155.1 157.7 157.1 L 157.7 157.1 L 157.7 157.1 Q 157.2 159 156.7 160.6 L 156.7 160.6 L 156.7 160.6 Q 158.7 160.1 160.7 158.8 L 160.7 158.8 L 160.7 158.8 Q 162.7 157.4 164.2 155.6 L 164.2 155.6 L 164.2 155.6 Q 165.8 153.8 166.8 151.7 L 166.8 151.7 L 166.8 151.7 Q 167.8 149.5 167.8 147.4 L 167.8 147.4 L 167.8 147.4 Q 167.8 145.5 166.6 145.5 L 166.6 145.5 L 166.6 145.5 Q 166 145.5 165.6 145.8 L 165.6 145.8 L 165.6 145.8 Q 165.2 146 164.7 146.7 L 164.7 146.7 L 164.7 146.7 Q 164.5 146.8 164.4 146.6 L 164.4 146.6 L 164.4 146.6 Q 164.2 146.4 164.3 146.2 L 164.3 146.2 L 164.3 146.2 Q 164.8 145.4 166.1 144.5 L 166.1 144.5 L 166.1 144.5 Q 167.3 143.6 168.7 143.6 L 168.7 143.6 L 168.7 143.6 Q 169.9 143.6 170.5 144.4 L 170.5 144.4 L 170.5 144.4 Q 171.1 145.2 171.1 146.4 L 171.1 146.4 L 171.1 146.4 Q 171.1 148.5 170 150.7 L 170 150.7 L 170 150.7 Q 168.9 152.8 167.1 154.7 L 167.1 154.7 L 167.1 154.7 Q 165.3 156.7 162.9 158.3 L 162.9 158.3 L 162.9 158.3 Q 160.6 159.9 158 161 Z  M 188.5 147.2 L 188.5 147.2 L 188.5 147.2 Q 188.5 151.3 177.6 152.8 L 177.6 152.8 L 177.6 152.8 Q 177.6 153.5 177.5 154.2 L 177.5 154.2 L 177.5 154.2 Q 177.5 154.9 177.5 155.7 L 177.5 155.7 L 177.5 155.7 Q 177.5 157.6 178.4 158.6 L 178.4 158.6 L 178.4 158.6 Q 179.2 159.6 181.1 159.6 L 181.1 159.6 L 181.1 159.6 Q 182.5 159.6 183.9 158.8 L 183.9 158.8 L 183.9 158.8 Q 185.3 158 186.2 156.8 L 186.2 156.8 L 186.2 156.8 Q 186.5 156.7 186.6 156.9 L 186.6 156.9 L 186.6 156.9 Q 186.8 157.2 186.7 157.5 L 186.7 157.5 L 186.7 157.5 Q 185.3 159.3 183.1 160.7 L 183.1 160.7 L 183.1 160.7 Q 180.9 162 178.4 162 L 178.4 162 L 178.4 162 Q 175.8 162 174.7 160.7 L 174.7 160.7 L 174.7 160.7 Q 173.6 159.5 173.6 157.2 L 173.6 157.2 L 173.6 157.2 Q 173.6 154.9 174.5 152.5 L 174.5 152.5 L 174.5 152.5 Q 175.5 150.1 176.9 148.1 L 176.9 148.1 L 176.9 148.1 Q 178.4 146.1 180.3 144.8 L 180.3 144.8 L 180.3 144.8 Q 182.2 143.6 184.2 143.6 L 184.2 143.6 L 184.2 143.6 Q 186.1 143.6 187.3 144.7 L 187.3 144.7 L 187.3 144.7 Q 188.5 145.8 188.5 147.2 Z  M 182.2 145.4 L 182.2 145.4 L 182.2 145.4 Q 180.6 145.4 179.4 147 L 179.4 147 L 179.4 147 Q 178.2 148.5 177.8 151.8 L 177.8 151.8 L 177.8 151.8 Q 181.2 151.4 182.9 150.4 L 182.9 150.4 L 182.9 150.4 Q 184.5 149.5 184.5 148 L 184.5 148 L 184.5 148 Q 184.5 147 183.9 146.2 L 183.9 146.2 L 183.9 146.2 Q 183.2 145.4 182.2 145.4 Z  M 221.2 157.5 L 221.2 157.5 L 221.2 157.5 Q 221.3 157.3 221.6 157.5 L 221.6 157.5 L 221.6 157.5 Q 221.8 157.6 221.7 157.9 L 221.7 157.9 L 221.7 157.9 Q 220.4 159.8 218.8 160.9 L 218.8 160.9 L 218.8 160.9 Q 217.2 162 215.8 162 L 215.8 162 L 215.8 162 Q 214.1 162 213.7 159.7 L 213.7 159.7 L 213.7 159.7 Q 213.2 157.3 214.1 154.1 L 214.1 154.1 L 214.1 154.1 Q 212.2 157.2 209.9 159.4 L 209.9 159.4 L 209.9 159.4 Q 207.7 161.6 205.1 162 L 205.1 162 L 205.1 162 Q 203.4 162 202.5 160.4 L 202.5 160.4 L 202.5 160.4 Q 201.5 158.8 201.5 156.7 L 201.5 156.7 L 201.5 156.7 Q 201.5 154.4 202.7 152 L 202.7 152 L 202.7 152 Q 203.8 149.7 205.7 147.8 L 205.7 147.8 L 205.7 147.8 Q 207.7 145.9 210 144.8 L 210 144.8 L 210 144.8 Q 212.3 143.6 214.7 143.6 L 214.7 143.6 L 214.7 143.6 Q 217.2 143.6 218.7 144.8 L 218.7 144.8 L 218.7 144.8 Q 219.4 144.3 220.5 143.9 L 220.5 143.9 L 220.5 143.9 Q 221.6 143.6 222.5 143.6 L 222.5 143.6 L 222.5 143.6 Q 222.8 143.6 222.8 143.9 L 222.8 143.9 L 222.8 143.9 Q 221.1 145.9 219.9 148.4 L 219.9 148.4 L 219.9 148.4 Q 218.7 150.8 218.1 153 L 218.1 153 L 218.1 153 Q 217.4 155.2 217.3 156.9 L 217.3 156.9 L 217.3 156.9 Q 217.2 158.6 217.6 159.3 L 217.6 159.3 L 217.6 159.3 Q 218 159.7 218.8 159.5 L 218.8 159.5 L 218.8 159.5 Q 219.7 159.3 221.2 157.5 Z  M 207.4 159.3 L 207.4 159.3 L 207.4 159.3 Q 208.2 159.3 209.5 158.3 L 209.5 158.3 L 209.5 158.3 Q 210.8 157.2 212.1 155.4 L 212.1 155.4 L 212.1 155.4 Q 213.5 153.6 214.8 151.3 L 214.8 151.3 L 214.8 151.3 Q 216.2 149.1 217.2 146.8 L 217.2 146.8 L 217.2 146.8 Q 216.9 145.9 215.8 145.3 L 215.8 145.3 L 215.8 145.3 Q 214.8 144.7 213.4 144.7 L 213.4 144.7 L 213.4 144.7 Q 211.8 144.7 210.3 145.5 L 210.3 145.5 L 210.3 145.5 Q 208.9 146.4 207.8 147.9 L 207.8 147.9 L 207.8 147.9 Q 206.8 149.3 206.2 151.4 L 206.2 151.4 L 206.2 151.4 Q 205.6 153.4 205.6 155.9 L 205.6 155.9 L 205.6 155.9 Q 205.6 157.5 206.1 158.4 L 206.1 158.4 L 206.1 158.4 Q 206.6 159.3 207.4 159.3 Z  M 284.9 115.8 L 284.9 115.8 L 284.9 115.8 Q 288.2 116.2 290.9 117.4 L 290.9 117.4 L 290.9 117.4 Q 293.6 118.7 295.4 120.5 L 295.4 120.5 L 295.4 120.5 Q 297.2 122.3 298.2 124.7 L 298.2 124.7 L 298.2 124.7 Q 299.2 127 299.2 129.6 L 299.2 129.6 L 299.2 129.6 Q 299.2 133 297.9 135.9 L 297.9 135.9 L 297.9 135.9 Q 296.6 138.9 294.2 141 L 294.2 141 L 294.2 141 Q 291.8 143.2 288.3 144.5 L 288.3 144.5 L 288.3 144.5 Q 284.8 145.7 280.5 145.7 L 280.5 145.7 L 280.5 145.7 Q 275.8 145.7 272.7 143.4 L 272.7 143.4 L 272.7 143.4 Q 268.2 153.1 262.1 157.6 L 262.1 157.6 L 262.1 157.6 Q 256 162 248.9 162 L 248.9 162 L 248.9 162 Q 242.9 162 240.1 159 L 240.1 159 L 240.1 159 Q 237.2 156 237.2 151.5 L 237.2 151.5 L 237.2 151.5 Q 237.2 150.1 237.7 148.7 L 237.7 148.7 L 237.7 148.7 Q 238.2 147.3 239 146.1 L 239 146.1 L 239 146.1 Q 239.9 144.8 241.2 143.8 L 241.2 143.8 L 241.2 143.8 Q 242.4 142.8 244 142.1 L 244 142.1 L 244 142.1 Q 244.2 142 244.4 142.1 L 244.4 142.1 L 244.4 142.1 Q 244.6 142.3 244.4 142.6 L 244.4 142.6 L 244.4 142.6 Q 242.3 143.8 241.3 145.7 L 241.3 145.7 L 241.3 145.7 Q 240.3 147.7 240.3 149.9 L 240.3 149.9 L 240.3 149.9 Q 240.3 151.8 240.9 153.6 L 240.9 153.6 L 240.9 153.6 Q 241.6 155.4 243 156.7 L 243 156.7 L 243 156.7 Q 244.4 158 246.5 158.7 L 246.5 158.7 L 246.5 158.7 Q 248.7 159.5 251.7 159.5 L 251.7 159.5 L 251.7 159.5 Q 255.2 159.5 257.8 158.6 L 257.8 158.6 L 257.8 158.6 Q 260.4 157.8 262.5 155.6 L 262.5 155.6 L 262.5 155.6 Q 264.6 153.4 266.4 149.7 L 266.4 149.7 L 266.4 149.7 Q 268.1 146 269.9 140.3 L 269.9 140.3 L 269.9 140.3 Q 268.6 138.2 268.1 135.8 L 268.1 135.8 L 268.1 135.8 Q 268.2 135.5 268.4 135.4 L 268.4 135.4 L 268.4 135.4 Q 268.6 135.2 268.8 135.4 L 268.8 135.4 L 268.8 135.4 Q 269.3 137.5 270.3 139.2 L 270.3 139.2 L 270.3 139.2 Q 270.6 138.2 270.8 137.2 L 270.8 137.2 L 270.8 137.2 Q 271.1 136.2 271.4 135.2 L 271.4 135.2 L 271.4 135.2 Q 273.2 128.8 275.3 124.6 L 275.3 124.6 L 275.3 124.6 Q 277.5 120.3 280.2 117.7 L 280.2 117.7 L 280.2 117.7 Q 279.9 117.6 279.2 117.6 L 279.2 117.6 L 279.2 117.6 Q 271.5 117.6 266.3 121.1 L 266.3 121.1 L 266.3 121.1 Q 261.2 124.6 259.1 131.8 L 259.1 131.8 L 259.1 131.8 Q 258.8 132 258.6 131.9 L 258.6 131.9 L 258.6 131.9 Q 258.3 131.7 258.3 131.2 L 258.3 131.2 L 258.3 131.2 Q 260.8 124 266.5 119.8 L 266.5 119.8 L 266.5 119.8 Q 272.2 115.6 281.6 115.6 L 281.6 115.6 L 282.8 115.6 L 282.8 115.6 Q 285.5 113.8 288.9 113 L 288.9 113 L 288.9 113 Q 289.2 113 289.2 113.3 L 289.2 113.3 L 289.2 113.3 Q 289.2 113.6 288.9 113.8 L 288.9 113.8 L 288.9 113.8 Q 286.7 114.4 284.9 115.8 Z  M 281.3 144.3 L 281.3 144.3 L 281.3 144.3 Q 284.3 144.3 286.8 143.3 L 286.8 143.3 L 286.8 143.3 Q 289.2 142.3 291 140.5 L 291 140.5 L 291 140.5 Q 292.8 138.7 293.7 136.3 L 293.7 136.3 L 293.7 136.3 Q 294.6 133.9 294.6 131.2 L 294.6 131.2 L 294.6 131.2 Q 294.6 126.1 291.6 122.5 L 291.6 122.5 L 291.6 122.5 Q 288.5 118.9 282.8 117.9 L 282.8 117.9 L 282.8 117.9 Q 279.2 122.5 276.8 131.8 L 276.8 131.8 L 276.8 131.8 Q 276.1 134.7 275.2 137.3 L 275.2 137.3 L 275.2 137.3 Q 274.3 140 273.2 142.3 L 273.2 142.3 L 273.2 142.3 Q 276.2 144.3 281.3 144.3 Z  M 325.7 108.5 L 325.7 108.5 L 325.7 108.5 Q 326.8 108.5 327.5 109 L 327.5 109 L 327.5 109 Q 328.2 109.6 328.4 110.5 L 328.4 110.5 L 328.4 110.5 Q 328.7 111.4 328.5 112.5 L 328.5 112.5 L 328.5 112.5 Q 328.3 113.7 327.7 114.8 L 327.7 114.8 L 327.7 114.8 Q 327.5 115 327.3 114.8 L 327.3 114.8 L 327.3 114.8 Q 327.1 114.7 327 114.5 L 327 114.5 L 327 114.5 Q 327.2 113.6 326.4 113 L 326.4 113 L 326.4 113 Q 325.7 112.5 324.1 112.5 L 324.1 112.5 L 324.1 112.5 Q 321.1 112.5 318.1 114.7 L 318.1 114.7 L 318.1 114.7 Q 315.2 116.9 312.3 120.5 L 312.3 120.5 L 312.3 120.5 Q 309.5 124.1 307.1 128.7 L 307.1 128.7 L 307.1 128.7 Q 304.6 133.4 302.8 138.4 L 302.8 138.4 L 302.8 138.4 Q 301 143.4 300 148.2 L 300 148.2 L 300 148.2 Q 299 153.1 299 157.2 L 299 157.2 L 299 157.2 Q 299 159.3 300.2 159.3 L 300.2 159.3 L 300.2 159.3 Q 301 159.3 301.9 158.6 L 301.9 158.6 L 301.9 158.6 Q 302.7 157.9 303.8 156.5 L 303.8 156.5 L 303.8 156.5 Q 304 156.3 304.2 156.5 L 304.2 156.5 L 304.2 156.5 Q 304.4 156.7 304.3 157 L 304.3 157 L 304.3 157 Q 302.8 159.1 300.9 160.6 L 300.9 160.6 L 300.9 160.6 Q 299 162 297.4 162 L 297.4 162 L 297.4 162 Q 296 162 295.5 161.2 L 295.5 161.2 L 295.5 161.2 Q 294.9 160.4 294.9 159.2 L 294.9 159.2 L 294.9 159.2 Q 294.9 155.8 296.4 150.7 L 296.4 150.7 L 296.4 150.7 Q 297.8 145.7 300.2 140 L 300.2 140 L 300.2 140 Q 302.6 134.4 305.8 128.7 L 305.8 128.7 L 305.8 128.7 Q 309 123.1 312.4 118.6 L 312.4 118.6 L 312.4 118.6 Q 315.8 114.1 319.3 111.3 L 319.3 111.3 L 319.3 111.3 Q 322.7 108.5 325.7 108.5 Z  M 325.4 157.5 L 325.4 157.5 L 325.4 157.5 Q 325.6 157.3 325.8 157.5 L 325.8 157.5 L 325.8 157.5 Q 326 157.6 326 157.9 L 326 157.9 L 326 157.9 Q 324.7 159.8 323.1 160.9 L 323.1 160.9 L 323.1 160.9 Q 321.5 162 320 162 L 320 162 L 320 162 Q 318.4 162 317.9 159.7 L 317.9 159.7 L 317.9 159.7 Q 317.5 157.3 318.4 154.1 L 318.4 154.1 L 318.4 154.1 Q 316.4 157.2 314.2 159.4 L 314.2 159.4 L 314.2 159.4 Q 311.9 161.6 309.4 162 L 309.4 162 L 309.4 162 Q 307.7 162 306.7 160.4 L 306.7 160.4 L 306.7 160.4 Q 305.8 158.8 305.8 156.7 L 305.8 156.7 L 305.8 156.7 Q 305.8 154.4 306.9 152 L 306.9 152 L 306.9 152 Q 308.1 149.7 310 147.8 L 310 147.8 L 310 147.8 Q 311.9 145.9 314.3 144.8 L 314.3 144.8 L 314.3 144.8 Q 316.6 143.6 319 143.6 L 319 143.6 L 319 143.6 Q 321.5 143.6 322.9 144.8 L 322.9 144.8 L 322.9 144.8 Q 323.6 144.3 324.8 143.9 L 324.8 143.9 L 324.8 143.9 Q 325.9 143.6 326.7 143.6 L 326.7 143.6 L 326.7 143.6 Q 327 143.6 327 143.9 L 327 143.9 L 327 143.9 Q 325.4 145.9 324.2 148.4 L 324.2 148.4 L 324.2 148.4 Q 323 150.8 322.4 153 L 322.4 153 L 322.4 153 Q 321.7 155.2 321.6 156.9 L 321.6 156.9 L 321.6 156.9 Q 321.4 158.6 321.8 159.3 L 321.8 159.3 L 321.8 159.3 Q 322.2 159.7 323.1 159.5 L 323.1 159.5 L 323.1 159.5 Q 323.9 159.3 325.4 157.5 Z  M 311.6 159.3 L 311.6 159.3 L 311.6 159.3 Q 312.5 159.3 313.7 158.3 L 313.7 158.3 L 313.7 158.3 Q 315 157.2 316.4 155.4 L 316.4 155.4 L 316.4 155.4 Q 317.7 153.6 319.1 151.3 L 319.1 151.3 L 319.1 151.3 Q 320.4 149.1 321.4 146.8 L 321.4 146.8 L 321.4 146.8 Q 321.1 145.9 320.1 145.3 L 320.1 145.3 L 320.1 145.3 Q 319 144.7 317.7 144.7 L 317.7 144.7 L 317.7 144.7 Q 316 144.7 314.6 145.5 L 314.6 145.5 L 314.6 145.5 Q 313.1 146.4 312.1 147.9 L 312.1 147.9 L 312.1 147.9 Q 311 149.3 310.4 151.4 L 310.4 151.4 L 310.4 151.4 Q 309.8 153.4 309.8 155.9 L 309.8 155.9 L 309.8 155.9 Q 309.8 157.5 310.4 158.4 L 310.4 158.4 L 310.4 158.4 Q 310.9 159.3 311.6 159.3 Z  M 343.1 143.9 L 343.1 143.9 L 343.1 143.9 Q 343.4 144.1 343.4 144.3 L 343.4 144.3 L 343.4 144.3 Q 343.3 144.6 342.7 144.7 L 342.7 144.7 L 342.7 144.7 Q 341.6 144.7 340.2 144.8 L 340.2 144.8 L 340.2 144.8 Q 338.8 144.9 337.3 145 L 337.3 145 L 337.3 145 Q 335.8 148.5 334.9 151.9 L 334.9 151.9 L 334.9 151.9 Q 333.9 155.2 333.9 157.3 L 333.9 157.3 L 333.9 157.3 Q 333.9 159.8 335.8 159.8 L 335.8 159.8 L 335.8 159.8 Q 337.7 159.8 340 156.5 L 340 156.5 L 340 156.5 Q 340.2 156.4 340.4 156.5 L 340.4 156.5 L 340.4 156.5 Q 340.6 156.7 340.5 157 L 340.5 157 L 340.5 157 Q 339.3 159 337.4 160.5 L 337.4 160.5 L 337.4 160.5 Q 335.5 162 333.7 162 L 333.7 162 L 333.7 162 Q 331.9 162 331 161.1 L 331 161.1 L 331 161.1 Q 330.1 160.2 330.1 158.6 L 330.1 158.6 L 330.1 158.6 Q 330.1 156.5 331.1 152.9 L 331.1 152.9 L 331.1 152.9 Q 332.1 149.2 333.7 145.4 L 333.7 145.4 L 333.7 145.4 Q 331.8 145.6 330.2 145.9 L 330.2 145.9 L 330.2 145.9 Q 329.8 145.9 330 145.6 L 330 145.6 L 330 145.6 Q 330.2 145.3 330.7 145 L 330.7 145 L 330.7 145 Q 331.1 144.6 331.8 144.4 L 331.8 144.4 L 331.8 144.4 Q 332.4 144.1 333 144.1 L 333 144.1 L 333 144.1 Q 333.3 144.1 333.6 144.1 L 333.6 144.1 L 333.6 144.1 Q 333.9 144.1 334.2 144.1 L 334.2 144.1 L 334.2 144.1 Q 335.1 142 336.1 140 L 336.1 140 L 336.1 140 Q 337.1 138.1 338.1 136.5 L 338.1 136.5 L 338.1 136.5 Q 338.6 136 339.3 135.6 L 339.3 135.6 L 339.3 135.6 Q 340.1 135.2 340.8 135 L 340.8 135 L 340.8 135 Q 341.5 134.8 342 134.7 L 342 134.7 L 342 134.7 Q 342.4 134.7 342.4 135 L 342.4 135 L 342.4 135 Q 341.1 136.9 340 139.2 L 340 139.2 L 340 139.2 Q 338.8 141.5 337.7 144 L 337.7 144 L 337.7 144 Q 339.1 143.9 340.5 143.9 L 340.5 143.9 L 340.5 143.9 Q 341.9 143.9 343.1 143.9 Z  M 357.6 147.2 L 357.6 147.2 L 357.6 147.2 Q 357.6 151.3 346.8 152.8 L 346.8 152.8 L 346.8 152.8 Q 346.7 153.5 346.7 154.2 L 346.7 154.2 L 346.7 154.2 Q 346.6 154.9 346.6 155.7 L 346.6 155.7 L 346.6 155.7 Q 346.6 157.6 347.5 158.6 L 347.5 158.6 L 347.5 158.6 Q 348.3 159.6 350.2 159.6 L 350.2 159.6 L 350.2 159.6 Q 351.6 159.6 353 158.8 L 353 158.8 L 353 158.8 Q 354.5 158 355.3 156.8 L 355.3 156.8 L 355.3 156.8 Q 355.6 156.7 355.8 156.9 L 355.8 156.9 L 355.8 156.9 Q 355.9 157.2 355.8 157.5 L 355.8 157.5 L 355.8 157.5 Q 354.4 159.3 352.2 160.7 L 352.2 160.7 L 352.2 160.7 Q 350 162 347.5 162 L 347.5 162 L 347.5 162 Q 345 162 343.8 160.7 L 343.8 160.7 L 343.8 160.7 Q 342.7 159.5 342.7 157.2 L 342.7 157.2 L 342.7 157.2 Q 342.7 154.9 343.7 152.5 L 343.7 152.5 L 343.7 152.5 Q 344.6 150.1 346.1 148.1 L 346.1 148.1 L 346.1 148.1 Q 347.6 146.1 349.5 144.8 L 349.5 144.8 L 349.5 144.8 Q 351.4 143.6 353.3 143.6 L 353.3 143.6 L 353.3 143.6 Q 355.3 143.6 356.4 144.7 L 356.4 144.7 L 356.4 144.7 Q 357.6 145.8 357.6 147.2 Z  M 351.4 145.4 L 351.4 145.4 L 351.4 145.4 Q 349.7 145.4 348.5 147 L 348.5 147 L 348.5 147 Q 347.3 148.5 346.9 151.8 L 346.9 151.8 L 346.9 151.8 Q 350.4 151.4 352 150.4 L 352 150.4 L 352 150.4 Q 353.7 149.5 353.7 148 L 353.7 148 L 353.7 148 Q 353.7 147 353 146.2 L 353 146.2 L 353 146.2 Q 352.4 145.4 351.4 145.4 Z " fill-rule="evenodd" fill="rgb(255,255,255)"/></g></g></svg>